<svg width="256" height="256" viewBox="0 0 256 256" fill="none" xmlns="http://www.w3.org/2000/svg">
<rect width="256" height="256" rx="64" fill="#783CDC"/>
<path d="M105.441 68.7773L161.203 153.152V67.9961C161.203 62.4622 162.375 58.3281 164.719 55.5938C167.128 52.7943 170.35 51.3945 174.387 51.3945C178.553 51.3945 181.841 52.7943 184.25 55.5938C186.659 58.3281 187.863 62.4622 187.863 67.9961V180.594C187.863 193.159 182.655 199.441 172.238 199.441C169.634 199.441 167.29 199.051 165.207 198.27C163.124 197.553 161.171 196.382 159.348 194.754C157.525 193.126 155.832 191.238 154.27 189.09C152.707 186.876 151.145 184.63 149.582 182.352L95.1875 98.9531V182.84C95.1875 188.309 93.918 192.443 91.3789 195.242C88.8398 198.042 85.5846 199.441 81.6133 199.441C77.5117 199.441 74.224 198.042 71.75 195.242C69.276 192.378 68.0391 188.243 68.0391 182.84V72.3906C68.0391 67.7031 68.5599 64.0247 69.6016 61.3555C70.8385 58.4258 72.8893 56.0495 75.7539 54.2266C78.6185 52.3385 81.7109 51.3945 85.0312 51.3945C87.6354 51.3945 89.849 51.8177 91.6719 52.6641C93.5599 53.5104 95.1875 54.6497 96.5547 56.082C97.987 57.5143 99.4193 59.3698 100.852 61.6484C102.349 63.9271 103.879 66.3034 105.441 68.7773Z" fill="white"/>
</svg>
